<?xml version="1.0" encoding="utf-8"?>
<!-- Generator: Adobe Illustrator 16.0.0, SVG Export Plug-In . SVG Version: 6.00 Build 0)  -->
<!DOCTYPE svg PUBLIC "-//W3C//DTD SVG 1.1//EN" "http://www.w3.org/Graphics/SVG/1.1/DTD/svg11.dtd">
<svg version="1.1" id="Layer_1" xmlns="http://www.w3.org/2000/svg" xmlns:xlink="http://www.w3.org/1999/xlink" x="0px" y="0px"
	 width="266px" height="65px" viewBox="0 0 266 65" enable-background="new 0 0 266 65" xml:space="preserve">
<path fill="#EB423F" d="M91.824,54.889H86.96l-0.896,2.48h-1.536l4.032-11.088h1.68l4.016,11.088H92.72L91.824,54.889z
	 M91.408,53.705l-2.016-5.633l-2.016,5.633H91.408z M95.469,52.953c0-0.896,0.181-1.68,0.544-2.352
	c0.363-0.685,0.859-1.211,1.488-1.584c0.64-0.375,1.354-0.562,2.144-0.562c0.683,0,1.317,0.16,1.903,0.479
	c0.587,0.31,1.035,0.72,1.344,1.231v-4.64h1.472v11.84h-1.472v-1.648c-0.288,0.523-0.714,0.955-1.28,1.297
	c-0.565,0.33-1.226,0.495-1.983,0.495c-0.779,0-1.488-0.192-2.128-0.575c-0.629-0.385-1.125-0.924-1.488-1.617
	C95.65,54.626,95.469,53.838,95.469,52.953z M102.893,52.969c0-0.66-0.133-1.236-0.4-1.729c-0.266-0.49-0.629-0.863-1.088-1.119
	c-0.448-0.268-0.944-0.4-1.487-0.4c-0.544,0-1.04,0.129-1.488,0.385c-0.448,0.256-0.805,0.629-1.072,1.119
	c-0.267,0.491-0.4,1.066-0.4,1.729c0,0.672,0.133,1.258,0.4,1.76c0.267,0.49,0.624,0.869,1.072,1.136
	c0.448,0.258,0.944,0.385,1.488,0.385c0.543,0,1.04-0.127,1.487-0.385c0.459-0.267,0.822-0.646,1.088-1.136
	C102.76,54.211,102.893,53.631,102.893,52.969z M117.37,48.441c0.682,0,1.29,0.144,1.824,0.432c0.533,0.277,0.954,0.699,1.264,1.264
	c0.309,0.565,0.464,1.254,0.464,2.064v5.168h-1.44v-4.961c0-0.874-0.219-1.541-0.656-2c-0.427-0.469-1.008-0.703-1.744-0.703
	c-0.758,0-1.36,0.245-1.808,0.736c-0.448,0.479-0.672,1.178-0.672,2.096v4.832h-1.44v-4.961c0-0.874-0.219-1.541-0.656-2
	c-0.427-0.469-1.008-0.703-1.744-0.703c-0.758,0-1.36,0.245-1.808,0.736c-0.448,0.479-0.672,1.178-0.672,2.096v4.832h-1.456v-8.768
	h1.456v1.264c0.288-0.459,0.672-0.811,1.152-1.057c0.49-0.246,1.029-0.367,1.616-0.367c0.736,0,1.386,0.164,1.952,0.496
	c0.565,0.33,0.986,0.814,1.264,1.455c0.245-0.619,0.65-1.1,1.216-1.439C116.047,48.611,116.676,48.441,117.37,48.441z
	 M124.062,47.177c-0.277,0-0.512-0.096-0.704-0.288c-0.192-0.19-0.288-0.426-0.288-0.703c0-0.276,0.096-0.513,0.288-0.705
	c0.192-0.19,0.427-0.287,0.704-0.287c0.267,0,0.491,0.097,0.672,0.287c0.192,0.192,0.288,0.429,0.288,0.705
	c0,0.277-0.096,0.513-0.288,0.703C124.553,47.081,124.329,47.177,124.062,47.177z M124.766,48.602v8.769h-1.456v-8.769H124.766z
	 M131.52,48.441c1.066,0,1.93,0.324,2.591,0.976c0.662,0.64,0.992,1.567,0.992,2.784v5.168h-1.439v-4.961
	c0-0.874-0.219-1.541-0.656-2c-0.438-0.469-1.035-0.703-1.792-0.703c-0.768,0-1.382,0.24-1.84,0.72
	c-0.448,0.479-0.672,1.179-0.672,2.097v4.849h-1.456v-8.769h1.456v1.248c0.288-0.449,0.677-0.795,1.168-1.041
	C130.373,48.563,130.922,48.441,131.52,48.441z M149.204,49.48c0,0.928-0.32,1.701-0.96,2.319c-0.631,0.607-1.596,0.912-2.896,0.912
	h-2.144v4.656h-1.456V46.217h3.6c1.258,0,2.213,0.305,2.864,0.912C148.873,47.736,149.204,48.521,149.204,49.48z M145.348,51.514
	c0.812,0,1.408-0.177,1.793-0.529c0.383-0.352,0.575-0.853,0.575-1.504c0-1.375-0.79-2.063-2.368-2.063h-2.144v4.096H145.348
	L145.348,51.514z M150.469,52.953c0-0.896,0.182-1.68,0.545-2.352c0.362-0.685,0.858-1.211,1.487-1.584
	c0.64-0.375,1.351-0.562,2.128-0.562c0.768,0,1.436,0.165,2,0.496c0.566,0.33,0.987,0.746,1.264,1.248V48.6h1.474v8.769h-1.474
	v-1.634c-0.287,0.514-0.72,0.939-1.295,1.281c-0.564,0.33-1.227,0.495-1.983,0.495c-0.778,0-1.482-0.192-2.112-0.575
	c-0.629-0.385-1.125-0.924-1.486-1.617C150.65,54.627,150.469,53.838,150.469,52.953z M157.893,52.969
	c0-0.66-0.133-1.236-0.398-1.729c-0.268-0.49-0.631-0.863-1.09-1.119c-0.446-0.268-0.942-0.4-1.486-0.4s-1.04,0.129-1.486,0.385
	c-0.449,0.256-0.807,0.629-1.072,1.119c-0.268,0.491-0.4,1.066-0.4,1.729c0,0.672,0.134,1.258,0.4,1.76
	c0.267,0.49,0.623,0.869,1.072,1.136c0.446,0.258,0.942,0.385,1.486,0.385s1.04-0.127,1.486-0.385
	c0.459-0.267,0.822-0.646,1.09-1.136C157.76,54.211,157.893,53.631,157.893,52.969z M166.098,48.441c1.066,0,1.93,0.324,2.592,0.976
	c0.662,0.64,0.992,1.567,0.992,2.784v5.168h-1.438v-4.961c0-0.874-0.22-1.541-0.656-2c-0.438-0.469-1.035-0.703-1.792-0.703
	c-0.77,0-1.382,0.24-1.84,0.72c-0.448,0.479-0.672,1.179-0.672,2.097v4.849h-1.456v-8.769h1.456v1.248
	c0.287-0.449,0.677-0.795,1.168-1.041C164.951,48.563,165.5,48.441,166.098,48.441z M180.061,52.648c0,0.276-0.017,0.57-0.049,0.881
	h-7.008c0.053,0.863,0.348,1.541,0.88,2.031c0.544,0.479,1.2,0.721,1.968,0.721c0.629,0,1.152-0.146,1.568-0.434
	c0.428-0.298,0.725-0.691,0.896-1.184h1.566c-0.234,0.843-0.703,1.529-1.406,2.063c-0.705,0.523-1.58,0.784-2.625,0.784
	c-0.832,0-1.578-0.187-2.24-0.56c-0.65-0.373-1.162-0.901-1.535-1.584c-0.373-0.693-0.561-1.494-0.561-2.4s0.182-1.701,0.545-2.384
	c0.361-0.683,0.869-1.206,1.52-1.567c0.661-0.373,1.419-0.561,2.271-0.561c0.832,0,1.567,0.182,2.209,0.544
	c0.64,0.362,1.131,0.864,1.472,1.504C179.884,51.135,180.061,51.85,180.061,52.648z M178.557,52.345
	c0-0.555-0.123-1.028-0.369-1.424c-0.244-0.405-0.58-0.71-1.008-0.912c-0.416-0.214-0.88-0.319-1.392-0.319
	c-0.735,0-1.365,0.234-1.888,0.703c-0.512,0.471-0.805,1.121-0.881,1.952H178.557z M183.438,45.529v11.84h-1.455v-11.84H183.438z"/>
<rect fill="none" width="65" height="65"/>
<text transform="matrix(1.1791 0 0 1 36.5024 31.874)" font-family="'MyriadPro-Regular'" font-size="37.6341">shopwavy</text>
<image overflow="visible" width="65" height="65" xlink:href="logo.png"  transform="matrix(0.7536 0 0 0.525 5.5 30.874)">
</image>
</svg>
